<svg id="Layer_1" data-name="Layer 1" xmlns="http://www.w3.org/2000/svg" viewBox="0 0 289.7 249.9"><defs><style>.cls-1,.cls-5{fill:#fff;}.cls-2{fill:none;}.cls-2,.cls-3,.cls-5{stroke:#000;stroke-miterlimit:10;stroke-width:3px;}.cls-4{fill:#fcee21;}</style></defs><path class="cls-1" d="M133.82,220.75l-27.93-29.48a10,10,0,0,0-14.13-.38L60.27,220.72" transform="translate(-55.15 -66.65)"/><path class="cls-2" d="M133.82,220.75l-27.93-29.48a10,10,0,0,0-14.13-.38L60.27,220.72" transform="translate(-55.15 -66.65)"/><path class="cls-1" d="M179.73,220.75l-31.37-33.11a5,5,0,0,0-7.06-.19l-35.12,33.27" transform="translate(-55.15 -66.65)"/><path class="cls-2" d="M179.73,220.75l-31.37-33.11a5,5,0,0,0-7.06-.19l-35.12,33.27" transform="translate(-55.15 -66.65)"/><path class="cls-3" d="M343.35,220.75c0,52.09-64.18,94.31-143.35,94.31S56.65,272.84,56.65,220.75h286.7Z" transform="translate(-55.15 -66.65)"/><polygon class="cls-4" points="47.47 119.63 96.74 85.7 74.41 79.33 65.24 89.98 73.71 92.51 47.47 119.63"/><polygon class="cls-4" points="99.52 51.83 50.25 85.76 72.59 92.13 81.75 81.48 73.28 78.95 99.52 51.83"/><path class="cls-5" d="M98.1,117c19.14-1,26.42,20.43,41.77,17.71,7.35-1.3,7.39-6.5,15.89-7.26,8.79-.79,11.38,4.53,20,5.44,10.14,1.08,23.6-4.51,29.51-16.34,4.62-9.26,4.4-21.9-2.72-30.42-12.27-14.68-38.07-10.57-42.68-2.27-1,1.78-1,3.83-2.27,4.09-3.29.7-5-13.61-13.62-18.17-12.49-6.57-35.81,9.15-34.51,15,.48,2.17,4.34,2.79,4.09,4.08-.34,1.74-7.34.91-15,2.27-2.75.49-19.32,3.44-20.88,11.81-.94,5,3.75,10.8,8.62,13.17C90.66,118.16,94.34,117.14,98.1,117Z" transform="translate(-55.15 -66.65)"/><rect x="177.5" y="114.64" width="4.13" height="40.68"/><rect x="237.01" y="102.72" width="4.13" height="51.38"/><path class="cls-5" d="M216.56,186.54c8.9,9.49,27.2,6.35,36.87-1.2a16.44,16.44,0,0,0,5.51-6.55c3.26-7.58-1.3-15.84-3.79-20.33-3.31-6-8-14.53-16-15.85-12.87-2.14-28.47,15.42-27.57,31.18C211.67,175.66,212.1,181.8,216.56,186.54Z" transform="translate(-55.15 -66.65)"/><path class="cls-5" d="M273,186.75c9.8,11.15,30,7.47,40.61-1.41a19,19,0,0,0,6.08-7.7c3.59-8.91-1.44-18.61-4.18-23.9-3.65-7-8.85-17.08-17.65-18.63-14.18-2.51-31.36,18.13-30.37,36.66C267.64,174,268.12,181.18,273,186.75Z" transform="translate(-55.15 -66.65)"/><path class="cls-5" d="M221.26,220.75c12.42,26.59,10.13,40.51,4.9,48.38-3.7,5.56-8.84,8.05-9.79,14.34-1.49,9.87,8.79,19.63,18.34,26.64l30-7.18c-10.71-6.44-22.26-15.42-20.59-24.5,1.07-5.78,6.84-8.07,11-13.19,5.87-7.23,8.45-20-5.49-44.49Z" transform="translate(-55.15 -66.65)"/></svg>