<svg id="Layer_1" data-name="Layer 1" xmlns="http://www.w3.org/2000/svg" viewBox="0 0 263.69 249.36"><defs><style>.cls-1{fill:#fff700;}</style></defs><g id="Glyphs_Tab_Bar_Home" data-name="Glyphs Tab Bar Home"><g id="Group_113" data-name="Group 113"><path id="Icon-2" d="M292.77,324.68H118.13a10.55,10.55,0,0,1-10.52-10.55V199.44H89.47c-5.6,0-9.23-1.45-10.23-4.08s.78-6.19,5-10L197.45,85.1a12.26,12.26,0,0,1,15.91,0L274,138.79v-1.73a14.67,14.67,0,1,1,29.34-.29,1.41,1.41,0,0,1,0,.29v27.73l23.25,20.6c4.25,3.77,6,7.31,5,10s-4.64,4.09-10.23,4.09h-18V314.12A10.69,10.69,0,0,1,292.77,324.68Zm-58-101.16v70.81H274V223.52Z" transform="translate(-68.16 -75.32)"/></g></g><g id="bolt"><path id="Path_65" data-name="Path 65" class="cls-1" d="M72.37,301.29,209.73,179.53l-70.41-11.05L115.4,204.33l26.72,4.54Z" transform="translate(-68.16 -75.32)"/><path id="Path_66" data-name="Path 66" class="cls-1" d="M205.52,75.32,68.16,197.08l70.4,11,23.93-35.84-26.72-4.54Z" transform="translate(-68.16 -75.32)"/></g></svg>