<svg id="Layer_1" data-name="Layer 1" xmlns="http://www.w3.org/2000/svg" viewBox="0 0 199.03 273.69"><defs><style>.cls-1{fill:none;stroke:#fff;stroke-miterlimit:10;stroke-width:3px;}.cls-2{fill:#fcee21;}</style></defs><path d="M144.44,246.8c3.64-4.12,4.42-9.44,1.72-11.82s-7.87-.94-11.51,3.18l-32.39,36.72c-3.63,4.12-4.41,9.44-1.72,11.82s7.88.94,11.51-3.18Z" transform="translate(-98.94 -14.16)"/><path d="M288.37,73.65c-77.52-.35-140.5,40.05-156.22,95-8.74,30.55-1,59,5.8,76" transform="translate(-98.94 -14.16)"/><path d="M137.84,244.55c77.53.35,140.5-40.05,156.23-95,8.74-30.55,1-58.95-5.81-76" transform="translate(-98.94 -14.16)"/><line class="cls-1" x1="53.45" y1="212.3" x2="125.05" y2="128.67"/><line class="cls-1" x1="79.47" y1="182.88" x2="105.8" y2="182.88"/><line class="cls-1" x1="100.3" y1="128.67" x2="101.82" y2="154.95"/><polygon class="cls-2" points="42.4 155.78 155.59 77.83 104.27 63.19 83.22 87.65 102.67 93.46 42.4 155.78"/><polygon class="cls-2" points="161.97 0 48.77 77.96 100.09 92.59 121.14 68.13 101.7 62.32 161.97 0"/></svg>