<svg id="Layer_1" data-name="Layer 1" xmlns="http://www.w3.org/2000/svg" viewBox="0 0 325.91 241.86"><defs><style>.cls-1{fill:#fcee21;}.cls-2,.cls-3,.cls-4{stroke:#000;stroke-miterlimit:10;}.cls-3,.cls-4,.cls-5{fill:#fff;}.cls-4{stroke-width:3px;}</style></defs><path class="cls-1" d="M178.1,102.48c-36,35.29-9.07,144.58,30,156.44,19.52,5.93,36.48-14.13,67.33-2.68,14.48,5.37,15.66,11.61,25.15,11.62,24.78,0,48.22-42.5,54.35-79.56,4.41-26.65,3.81-74.23-19.47-88.5-17.48-10.73-29.34,8.62-66.52.89-22.41-4.66-26.9-13.53-47-13.41C216.8,87.31,192.85,88,178.1,102.48Z" transform="translate(-31.17 -69.08)"/><path class="cls-2" d="M120.33,122.92c-33.3-1-73.28,39.7-70.76,73.09,6,78.93,250.76,134.84,264.31,107.33,6.7-13.59-50.32-32.67-130.41-127.73C157.74,145.07,143.92,123.63,120.33,122.92Z" transform="translate(-31.17 -69.08)"/><path class="cls-3" d="M29.06,144" transform="translate(-31.17 -69.08)"/><path class="cls-4" d="M69.07,153c-4.52,7-36-1.24-36.39-9.36-.13-2.58,2.88-5.18,5.46-6.24,7.28-3,15.64,4.46,17.15,2.6s-7.88-9.35-5.72-14.81a7.22,7.22,0,0,1,7.8-3.9c3.08.8,3.71,4.37,8.58,19.23C69.31,150.74,69.88,151.7,69.07,153Z" transform="translate(-31.17 -69.08)"/><polygon class="cls-5" points="50.53 176.48 77.23 146.06 52.79 178.13 50.53 176.48"/><polygon class="cls-5" points="184.84 140.64 154.66 167.61 182.79 138.72 184.84 140.64"/><polygon class="cls-5" points="156.77 224.2 175.85 188.5 159.35 225.3 156.77 224.2"/><path class="cls-4" d="M269.48,100.25c-10.79-4.22-12.68-20.78-7.79-26.8,1.09-1.35,3.39-3.23,5.61-2.8,3.25.61,4.64,5.84,5,7.16,1.46,5.49-.15,10.17.32,10.29.7.17,1.79-11.3,8.72-14.65,3.05-1.47,7.2-1.35,8.1.31,1.79,3.28-9.31,11.82-8.1,13.4s10.59-5.18,12.47-3.11c1.25,1.37-1.59,5.79-1.87,6.23C288.27,95.88,278.76,103.88,269.48,100.25Z" transform="translate(-31.17 -69.08)"/></svg>