<svg id="Layer_1" data-name="Layer 1" xmlns="http://www.w3.org/2000/svg" viewBox="0 0 921 188.63"><defs><style>.cls-1{isolation:isolate;}.cls-2{fill:#fff700;}</style></defs><g id="the_adventures_of_" data-name="the adventures of " class="cls-1"><g class="cls-1"><path d="M326.83,190.71v8.13H338.4v4.46H326.91v15.82a4,4,0,0,0,1.48,3.34,6.73,6.73,0,0,0,4.27,1.17c1,0,2.06,0,3.07,0s1.85-.06,2.51-.12v4.41c-.68.05-1.6.1-2.76.14s-2.23.07-3.2.07a17,17,0,0,1-6.11-.93,6.65,6.65,0,0,1-3.52-2.91,10.2,10.2,0,0,1-1.14-5.13V203.3h-7.73v-4.46h7.73v-8.13Z" transform="translate(-39.5 -187.32)"/><path d="M348.47,187.32h5.21v16.52h.41a8.61,8.61,0,0,1,3.54-4.18,10.88,10.88,0,0,1,5.72-1.46c3.19,0,5.62.93,7.31,2.79s2.52,4.54,2.52,8v19h-5.37V210.37q0-3.7-1.57-5.54a6,6,0,0,0-4.82-1.82,7.23,7.23,0,0,0-5.48,2.16,7.9,7.9,0,0,0-2.07,5.71V228h-5.4Z" transform="translate(-39.5 -187.32)"/><path d="M407.42,220.25a8.37,8.37,0,0,1-2,4.34,11,11,0,0,1-4.19,2.9,15.1,15.1,0,0,1-5.72,1q-6.15,0-9.54-3.44t-3.38-9.69v-4.46a13.72,13.72,0,0,1,1.57-6.71,11.12,11.12,0,0,1,4.42-4.47,13.28,13.28,0,0,1,6.63-1.6,12.81,12.81,0,0,1,6.6,1.61,10.72,10.72,0,0,1,4.23,4.6,16.06,16.06,0,0,1,1.47,7.13v3.2H387.87V216a8.37,8.37,0,0,0,2.07,6,7.22,7.22,0,0,0,5.53,2.21,8.85,8.85,0,0,0,4.43-1,4.85,4.85,0,0,0,2.37-2.85Zm-17.62-15.5a9,9,0,0,0-1.93,6.13h14.34a9.2,9.2,0,0,0-1.86-6.11,6.43,6.43,0,0,0-5.2-2.22A6.78,6.78,0,0,0,389.8,204.75Z" transform="translate(-39.5 -187.32)"/><path d="M452.83,226.06a8.37,8.37,0,0,1-2.55-6.4,7.55,7.55,0,0,1,2.74-6.15q2.75-2.26,7.84-2.53l7.68-.4V208a5,5,0,0,0-1.51-3.91,6.32,6.32,0,0,0-4.34-1.35,7.44,7.44,0,0,0-3.92.95,4.64,4.64,0,0,0-2.12,2.73h-5.27a7.94,7.94,0,0,1,1.79-4.28,10.13,10.13,0,0,1,4-2.84,14.71,14.71,0,0,1,5.63-1c3.54,0,6.28.84,8.2,2.54a9,9,0,0,1,2.89,7.15v20h-5.13v-4.27h-.51a7.43,7.43,0,0,1-3.32,3.51,11.18,11.18,0,0,1-5.35,1.22A9.43,9.43,0,0,1,452.83,226.06ZM465,223.14a6.6,6.6,0,0,0,2.6-2.33,6,6,0,0,0,1-3.33v-3.09l-7,.35q-5.94.33-5.94,4.68a4.11,4.11,0,0,0,1.51,3.33,6.25,6.25,0,0,0,4.08,1.23A8.15,8.15,0,0,0,465,223.14Z" transform="translate(-39.5 -187.32)"/><path d="M494.57,228.47a11,11,0,0,1-5.86-1.52,10.07,10.07,0,0,1-3.82-4.32,15,15,0,0,1-1.36-6.62v-5.32a14.94,14.94,0,0,1,1.36-6.63,10.15,10.15,0,0,1,3.82-4.33,10.91,10.91,0,0,1,5.86-1.53,10.19,10.19,0,0,1,5.37,1.34,7.18,7.18,0,0,1,3.09,3.82h.53v-16h5.54V228h-5.43v-4.62h-.51a7.7,7.7,0,0,1-3.22,3.79A10.28,10.28,0,0,1,494.57,228.47Zm1.77-4.76a6.81,6.81,0,0,0,5.37-2.23,8.62,8.62,0,0,0,2-6v-4.38a8.61,8.61,0,0,0-2-6,7.6,7.6,0,0,0-10.74,0,8.61,8.61,0,0,0-2,6v4.38a8.62,8.62,0,0,0,2,6A6.81,6.81,0,0,0,496.34,223.71Z" transform="translate(-39.5 -187.32)"/><path d="M523,198.71l7.65,23.79h.37l7.6-23.79h5.72L533.83,228h-6l-10.58-29.27Z" transform="translate(-39.5 -187.32)"/><path d="M577.42,220.25a8.39,8.39,0,0,1-2,4.34,11,11,0,0,1-4.19,2.9,15.06,15.06,0,0,1-5.72,1q-6.15,0-9.53-3.44t-3.38-9.69v-4.46a13.72,13.72,0,0,1,1.57-6.71,11.1,11.1,0,0,1,4.41-4.47,13.29,13.29,0,0,1,6.64-1.6,12.75,12.75,0,0,1,6.59,1.61,10.6,10.6,0,0,1,4.23,4.6,16.06,16.06,0,0,1,1.48,7.13v3.2H557.87V216a8.36,8.36,0,0,0,2.06,6,7.25,7.25,0,0,0,5.54,2.21,8.88,8.88,0,0,0,4.43-1,4.83,4.83,0,0,0,2.36-2.85Zm-17.62-15.5a9,9,0,0,0-1.93,6.13h14.34a9.2,9.2,0,0,0-1.87-6.11,6.42,6.42,0,0,0-5.2-2.22A6.76,6.76,0,0,0,559.8,204.75Z" transform="translate(-39.5 -187.32)"/><path d="M586.52,198.71h5.21v5.1h.38a8.89,8.89,0,0,1,3.54-4.19,10.62,10.62,0,0,1,5.67-1.47c3.18,0,5.62.93,7.29,2.79s2.51,4.55,2.51,8.06v19h-5.4V210.31c0-2.5-.51-4.36-1.54-5.56a6,6,0,0,0-4.8-1.8,7.14,7.14,0,0,0-5.42,2.17,7.89,7.89,0,0,0-2.07,5.7V228h-5.37Z" transform="translate(-39.5 -187.32)"/><path d="M632.82,190.71v8.13h11.57v4.46H632.9v15.82a4,4,0,0,0,1.48,3.34,6.74,6.74,0,0,0,4.27,1.17c1,0,2.06,0,3.07,0s1.85-.06,2.51-.12v4.41c-.68.05-1.6.1-2.76.14s-2.23.07-3.2.07a17,17,0,0,1-6.11-.93,6.65,6.65,0,0,1-3.52-2.91,10.2,10.2,0,0,1-1.14-5.13V203.3h-7.73v-4.46h7.73v-8.13Z" transform="translate(-39.5 -187.32)"/><path d="M679.12,228h-5.21v-5.1h-.38a8.85,8.85,0,0,1-3.54,4.19,10.62,10.62,0,0,1-5.67,1.48q-4.79,0-7.29-2.8t-2.51-8.05v-19h5.4v17.67q0,3.76,1.54,5.56a6,6,0,0,0,4.79,1.8,7.18,7.18,0,0,0,5.43-2.16,7.9,7.9,0,0,0,2.07-5.71V198.71h5.37Z" transform="translate(-39.5 -187.32)"/><path d="M699.85,228h-5.24V202.85h-6.36v-4.14h11.57v7.49h.76A10.22,10.22,0,0,1,704,200a10.53,10.53,0,0,1,6.75-2,16.2,16.2,0,0,1,2.38.16,7.94,7.94,0,0,1,1.84.46v5.93a14.73,14.73,0,0,0-4.83-.86q-4.95,0-7.62,3t-2.67,8.32Zm-11,0v-4.13h19.93V228Z" transform="translate(-39.5 -187.32)"/><path d="M747.41,220.25a8.37,8.37,0,0,1-2,4.34,11,11,0,0,1-4.19,2.9,15.1,15.1,0,0,1-5.72,1q-6.15,0-9.53-3.44t-3.39-9.69v-4.46a13.72,13.72,0,0,1,1.57-6.71,11.12,11.12,0,0,1,4.42-4.47,13.28,13.28,0,0,1,6.63-1.6,12.81,12.81,0,0,1,6.6,1.61,10.72,10.72,0,0,1,4.23,4.6,16.06,16.06,0,0,1,1.47,7.13v3.2H727.86V216a8.37,8.37,0,0,0,2.07,6,7.22,7.22,0,0,0,5.53,2.21,8.85,8.85,0,0,0,4.43-1,4.85,4.85,0,0,0,2.37-2.85Zm-17.62-15.5a9,9,0,0,0-1.93,6.13H742.2a9.2,9.2,0,0,0-1.86-6.11,6.43,6.43,0,0,0-5.2-2.22A6.78,6.78,0,0,0,729.79,204.75Z" transform="translate(-39.5 -187.32)"/><path d="M760.84,200.48a14.93,14.93,0,0,1,15.79-.2,8,8,0,0,1,3.33,6H774.8a4.2,4.2,0,0,0-2-2.84,7.36,7.36,0,0,0-4-1,7,7,0,0,0-4.13,1.1,3.43,3.43,0,0,0-1.54,2.93,3.07,3.07,0,0,0,1.14,2.48,8.8,8.8,0,0,0,3.69,1.52l4.25.94a13.19,13.19,0,0,1,6.36,2.91,6.86,6.86,0,0,1,2,5.15,8,8,0,0,1-3.2,6.63,13.59,13.59,0,0,1-8.54,2.47,14.27,14.27,0,0,1-8.34-2.2,7.91,7.91,0,0,1-3.5-6h5.42a4.55,4.55,0,0,0,2.18,2.88,8.34,8.34,0,0,0,4.37,1,7.58,7.58,0,0,0,4.41-1.14,3.56,3.56,0,0,0,1.64-3.05,3.1,3.1,0,0,0-1.12-2.53,9.46,9.46,0,0,0-3.74-1.53l-4.38-1q-8-1.8-8-8.17A7.61,7.61,0,0,1,760.84,200.48Z" transform="translate(-39.5 -187.32)"/><path d="M830,227a10.91,10.91,0,0,1-4.49-4.49,14.07,14.07,0,0,1-1.58-6.86v-4.45a14.17,14.17,0,0,1,1.58-6.89,10.94,10.94,0,0,1,4.49-4.5,15.53,15.53,0,0,1,13.69,0,10.94,10.94,0,0,1,4.49,4.5,14.28,14.28,0,0,1,1.58,6.89v4.45a14.19,14.19,0,0,1-1.58,6.86,10.91,10.91,0,0,1-4.49,4.49A15.71,15.71,0,0,1,830,227Zm1.28-21.85a9.44,9.44,0,0,0-2,6.42v3.68a9.51,9.51,0,0,0,2,6.42,7.73,7.73,0,0,0,11.12,0,9.51,9.51,0,0,0,2-6.42v-3.68a9.44,9.44,0,0,0-2-6.42,7.8,7.8,0,0,0-11.12,0Z" transform="translate(-39.5 -187.32)"/><path d="M866.3,203.3h-7.84v-4.46h7.84v-2.71a9.19,9.19,0,0,1,1.14-4.83,6.72,6.72,0,0,1,3.55-2.78,17.63,17.63,0,0,1,6.11-.9c1.16,0,2.42,0,3.77.07s2.46.1,3.32.17v4.19c-1-.07-2.12-.13-3.39-.17s-2.47-.07-3.6-.07q-5.61,0-5.61,4.16v2.87h12.6v4.46H871.67V228H866.3Z" transform="translate(-39.5 -187.32)"/></g></g><rect id="geel" class="cls-2" y="94.63" width="921" height="94"/><g id="h1" class="cls-1"><g class="cls-1"><path d="M138.5,252H109V225.92h91.93V252H171.41V338H138.5Z" transform="translate(-39.5 -187.32)"/><path d="M207.28,252.24h31.83V338H207.28Zm4.7-12.19a14.77,14.77,0,0,1,0-21.31,16.34,16.34,0,0,1,22.44,0,14.77,14.77,0,0,1,0,21.31,16.21,16.21,0,0,1-22.44,0Z" transform="translate(-39.5 -187.32)"/><path d="M251.07,252.24H282.9v16.23h.62a24,24,0,0,1,8.89-13.2,25.2,25.2,0,0,1,15.49-4.89A26.44,26.44,0,0,1,319,252.59a20.42,20.42,0,0,1,8,6.41,23.13,23.13,0,0,1,4.15,10.24h.62a24,24,0,0,1,5.21-9.9,25.6,25.6,0,0,1,9.16-6.59,29.54,29.54,0,0,1,11.95-2.37,28.46,28.46,0,0,1,14.71,3.72,26.16,26.16,0,0,1,9.9,10.37,32,32,0,0,1,3.57,15.41V338H354.4V288.19c0-4.09-.86-7.15-2.6-9.16s-4.33-3-7.8-3a10.1,10.1,0,0,0-5.51,1.47,9.31,9.31,0,0,0-3.53,4.16,15.58,15.58,0,0,0-1.21,6.48V338h-30.2V288.26q0-6.12-2.6-9.2c-1.73-2-4.31-3.06-7.72-3.06a10.14,10.14,0,0,0-5.52,1.47,9.52,9.52,0,0,0-3.57,4.2,15.32,15.32,0,0,0-1.24,6.44V338H251.07Z" transform="translate(-39.5 -187.32)"/><path d="M416.51,334.46a36.93,36.93,0,0,1-15.41-15.41q-5.4-10.05-5.39-23.95V295q0-14,5.35-23.95a37,37,0,0,1,15.18-15.33q9.83-5.37,23.18-5.36t23.17,5.28a37.4,37.4,0,0,1,15.22,14.9q5.38,9.63,5.39,22.67v9h-72v-18h57.22l-14.67,16.92V288.89a21.76,21.76,0,0,0-1.67-8.93,12.84,12.84,0,0,0-23.68,0,21.76,21.76,0,0,0-1.67,8.93v12.42a21.3,21.3,0,0,0,1.71,8.93,12.82,12.82,0,0,0,4.89,5.7,14.26,14.26,0,0,0,7.69,2,15.85,15.85,0,0,0,7-1.36,13.8,13.8,0,0,0,4.39-3.14,9.11,9.11,0,0,0,2-3l.08-.23h28.33l-.23,1a37.87,37.87,0,0,1-3.49,9.12,34.72,34.72,0,0,1-7.38,9.39,36.91,36.91,0,0,1-12.46,7.3q-7.65,2.83-18.83,2.84Q426.53,339.82,416.51,334.46Z" transform="translate(-39.5 -187.32)"/><path d="M492.91,252.24h31.83v15.37h.62q1.64-8.39,6.48-12.81t12.54-4.42a24.7,24.7,0,0,1,4,.31,22.61,22.61,0,0,1,3.73.93v26.79a23,23,0,0,0-4.39-1.33,25.16,25.16,0,0,0-4.85-.46,22.22,22.22,0,0,0-10,2,13.19,13.19,0,0,0-6,6,22,22,0,0,0-2,10V338H492.91Z" transform="translate(-39.5 -187.32)"/><path d="M559.6,252.24h31.83v16.23h.62a24,24,0,0,1,8.89-13.2,25.17,25.17,0,0,1,15.49-4.89,26.47,26.47,0,0,1,11.06,2.21,20.5,20.5,0,0,1,8,6.41,23.13,23.13,0,0,1,4.15,10.24h.62a23.94,23.94,0,0,1,5.2-9.9,25.78,25.78,0,0,1,9.16-6.59,29.62,29.62,0,0,1,12-2.37,28.49,28.49,0,0,1,14.71,3.72,26.16,26.16,0,0,1,9.9,10.37,32,32,0,0,1,3.57,15.41V338H662.93V288.19c0-4.09-.87-7.15-2.6-9.16s-4.33-3-7.8-3a10.1,10.1,0,0,0-5.51,1.47,9.33,9.33,0,0,0-3.54,4.16,15.75,15.75,0,0,0-1.2,6.48V338h-30.2V288.26q0-6.12-2.6-9.2c-1.74-2-4.31-3.06-7.73-3.06a10.1,10.1,0,0,0-5.51,1.47,9.52,9.52,0,0,0-3.57,4.2,15.32,15.32,0,0,0-1.24,6.44V338H559.6Z" transform="translate(-39.5 -187.32)"/><path d="M717.16,335.62a26,26,0,0,1-10.25-9.27,24.33,24.33,0,0,1-3.69-13.24V313q0-12.42,9.24-19.21t26.32-8l35-2.33v17.7l-29.74,2.1q-5,.3-7.41,2.25a6.29,6.29,0,0,0-2.37,5.12v.08a5.81,5.81,0,0,0,2.64,5.12,12.41,12.41,0,0,0,7.06,1.79,16.31,16.31,0,0,0,6.68-1.28,10.85,10.85,0,0,0,4.5-3.53,8.39,8.39,0,0,0,1.63-5.05V281.2a7.57,7.57,0,0,0-2.4-5.9q-2.42-2.18-7.3-2.17T739.48,275a7.21,7.21,0,0,0-3.26,4.5l-.16.78H707.65l.08-1a28.06,28.06,0,0,1,5.7-15.26,32.23,32.23,0,0,1,14-10.05q9-3.57,21.47-3.57a54.42,54.42,0,0,1,20.88,3.69,32.35,32.35,0,0,1,13.9,10.28,24.75,24.75,0,0,1,5,15.3V338H756.79V326.31h-.62a26.71,26.71,0,0,1-5.86,6.91,24,24,0,0,1-8,4.34,31.84,31.84,0,0,1-10,1.48A32.35,32.35,0,0,1,717.16,335.62Z" transform="translate(-39.5 -187.32)"/><path d="M800.58,252.24h31.83v15.92H833a26.81,26.81,0,0,1,9.71-13.24q6.53-4.54,16.22-4.54,14.13,0,21.78,8.54t7.65,24v55H856.56V289.9q0-6.45-3-10.18t-9-3.72a11.46,11.46,0,0,0-6.44,1.78,11.78,11.78,0,0,0-4.19,4.89,16.44,16.44,0,0,0-1.48,7.15V338H800.58Z" transform="translate(-39.5 -187.32)"/></g></g></svg>