<svg id="Layer_1" data-name="Layer 1" xmlns="http://www.w3.org/2000/svg" viewBox="0 0 292.55 292.55"><defs><style>.cls-1{fill:#39b54a;}</style></defs><circle cx="146.28" cy="146.28" r="146.28"/><path class="cls-1" d="M255.84,150.44c-6.35-12.67-46.46-4.62-61.69,3.67a49,49,0,0,0-10,7.34c-3.45,3.43-4.95,6.15-9,13,0,0-3.87,6.53-12.68,20.68-5.19,8.34-6.91,10.78-9.67,13.67a58.71,58.71,0,0,1-10,8.34,76.52,76.52,0,0,1-21.68,10c-7.32,2.28-11.42,3.55-17.34,3.67-11.44.22-19-4.07-22-.34a6.39,6.39,0,0,0-1,4.67c.48,3.08,3.22,4.9,6.34,7,13.12,8.85,9.19,6.59,11.67,8,15.21,8.64,13,8.48,19.68,11.67,7,3.35,12.37,4.94,19.34,7a186.12,186.12,0,0,0,28,6,201.41,201.41,0,0,0,26.68,1.67,226.72,226.72,0,0,0,26-1.67c8.12-1,13.57-1.63,21-3.67a102.73,102.73,0,0,0,19.35-7.34,98.28,98.28,0,0,0,29.68-23.68c3.82-4.53,6.56-7.77,9-13a38.24,38.24,0,0,0,4-15,39.19,39.19,0,0,0-2.66-15.34c-3.73-9.67-9.09-12.4-8-18.68.07-.41,0,0,2-6,1.67-5.06,2.51-7.59,3-9.34a68.47,68.47,0,0,0,2.34-14c.15-1.78.1-6.1,0-14.67-.11-9.06-.18-11.36-1.33-14.67-1.07-3.08-2.19-6.13-5.34-8-4.52-2.69-9.47-.75-9.67-.67-.88.36-4,1.59-5.34,4.67-.75,1.75-.59,3.33-.18,5.88.91,5.69,2,9.67,2.57,11.86A59.86,59.86,0,0,1,280.29,145c0,2.56-.11,8-3.36,17.59a104.87,104.87,0,0,1-14.82,28.06A120.82,120.82,0,0,1,238.79,214C232,219.2,226,222.4,214.09,228.8c-23.18,12.44-22,7.87-28.85,10.87a5.15,5.15,0,0,1-3,.39c-1.33-.25-2.89-1.18-3-2.17-.13-1.78,4.56-3.48,6.33-4.15,8.41-3.21,14.59-7.67,25.88-15.81,3.64-2.63,7.44-6.36,15-13.83,9-8.83,14.47-14.32,20.16-22.92,5.57-8.44,7.28-13.77,8.1-17C256.51,157.4,257.45,153.65,255.84,150.44Z" transform="translate(-57.03 -46.98)"/></svg>